<?xml version="1.0" encoding="utf-8"?>
<!-- Generator: Adobe Illustrator 18.1.1, SVG Export Plug-In . SVG Version: 6.00 Build 0)  -->
<!DOCTYPE svg PUBLIC "-//W3C//DTD SVG 1.1//EN" "http://www.w3.org/Graphics/SVG/1.1/DTD/svg11.dtd">
<svg version="1.1" id="Layer_1" xmlns="http://www.w3.org/2000/svg" xmlns:xlink="http://www.w3.org/1999/xlink" x="0px" y="0px"
	 width="256px" height="256px" viewBox="-557 203 256 256" enable-background="new -557 203 256 256" xml:space="preserve">
<g>
	<path fill="#512200" stroke="#512200" stroke-width="3.9985" stroke-miterlimit="10" d="M-344.1,311.7c2.8,10.6,4.3,21.8,4.3,33.5
		c0,1.4,0,2.7-0.1,4.1l13.7,5.4l11.4-9.4l8.7,10.3l-17,14.1l-17.8-7.2c-2,15.7-6.8,30.3-13.7,43l2.4-3.3l13.3,7.6l12.6-7.7l7.1,11.4
		l-18.9,11.5l-20.9-12.2c-16.3,25.4-41.6,41.7-70.1,41.7c-28.4,0-53.6-16.2-69.9-41.5l-20.6,12l-18.9-11.5l7.1-11.4l12.7,7.7
		l13.3-7.6l1,1.3c-6.3-12.2-10.6-25.9-12.6-40.7l-17.2,6.9l-17-14.1l8.7-10.3l11.4,9.4l13.1-5.1c0-1.4-0.1-2.8-0.1-4.3
		c0-11.7,1.5-23,4.3-33.5l-22.2-0.8l-9.7-19.8l12.2-5.8l6.5,13.2l15.4,0.7l0.3,4.4c9.2-27.3,27.2-49.1,49.7-59.9
		c0.4-8.4,7.4-15.1,16-15.1h37.3c8.9,0,16,7.1,16,15.9c0,0.4-0.1,0.7-0.1,1.1c21.2,11.6,37.9,33,46.5,59.6l0.4-6l15.4-0.7l6.5-13.2
		l12.2,5.8l-9.7,19.8L-344.1,311.7z"/>
	<polygon fill="#512200" stroke="#512200" stroke-width="3.9985" stroke-miterlimit="10" points="-383.9,214.5 -385.7,219.3 
		-388.4,220.5 -394,222 -398.8,224.9 -405.5,228.6 -405.5,224.9 -398,219.5 -392.5,217.9 -387.6,214.5 -384.8,209 -379.4,207.2 
		-380.9,212.3 	"/>
	<polygon fill="#512200" stroke="#512200" stroke-width="3.9985" stroke-miterlimit="10" points="-460.2,222 -465.9,220.5 
		-468.6,219.3 -470.4,214.5 -473.4,212.3 -474.9,207.2 -469.5,209 -466.7,214.5 -461.8,217.9 -456.3,219.5 -448.8,224.9 
		-448.8,228.6 -455.5,224.9 	"/>
</g>
</svg>
